
<svg width="32px" height="32px" viewBox="0 0 32 32" version="1.1" xmlns="http://www.w3.org/2000/svg" xmlns:xlink="http://www.w3.org/1999/xlink">
    <g id="Welcome" stroke="none" stroke-width="1" fill="none" fill-rule="evenodd" fill-opacity="0.75">
        <g id="Home-Desktop" transform="translate(-888.000000, -967.000000)" fill="#F9FAFA">
            <path d="M908.155,977.656 L906.649,977.657 C905.468,977.657 905.239,978.218 905.239,979.041 L905.239,980.857 L908.056,980.857 L907.689,983.702 L905.239,983.702 L905.239,991 L902.302,991 L902.302,983.702 L899.846,983.702 L899.846,980.857 L902.302,980.857 L902.302,978.76 C902.302,976.325 903.789,975 905.96,975 C907,975 907.894,975.077 908.155,975.112 L908.155,977.656 Z M904,967 C895.164,967 888,974.163 888,983 C888,991.836 895.164,999 904,999 C912.837,999 920,991.836 920,983 C920,974.163 912.837,967 904,967 L904,967 Z" id="Fill-183"></path>
        </g>
    </g>
</svg>