
<svg width="32px" height="32px" viewBox="0 0 32 32" version="1.1" xmlns="http://www.w3.org/2000/svg" xmlns:xlink="http://www.w3.org/1999/xlink">
    <g id="Welcome" stroke="none" stroke-width="1" fill="none" fill-rule="evenodd">
        <g id="Home-Desktop" transform="translate(-927.000000, -967.000000)">
            <g id="Group-4" transform="translate(927.000000, 967.000000)">
                <circle id="Oval" fill="#C3C6C8" cx="16" cy="16" r="16"></circle>
                <g id="25178" transform="translate(7.000000, 9.000000)" fill="#232931" fill-rule="nonzero">
                    <path d="M17.9899028,4.92191953 C17.9833589,4.56035463 17.9547208,4.10320038 17.9046569,3.55087896 C17.8543115,2.9982409 17.7822941,2.5043567 17.6886397,2.06919117 C17.5814755,1.58040835 17.3487469,1.16853326 16.9905595,0.833706653 C16.6323721,0.498809677 16.215466,0.304675681 15.7398764,0.251023208 C14.2531576,0.0837330394 12.0065438,-3.10862447e-13 8.99996482,-3.10862447e-13 C5.99335061,-3.10862447e-13 3.74670169,0.0837330394 2.26008842,0.251023208 C1.7845692,0.304640499 1.36931665,0.498809677 1.01450669,0.833706653 C0.659556004,1.16842772 0.428516143,1.5803028 0.321351925,2.06919117 C0.221013006,2.50449743 0.145582906,2.99834645 0.0953782646,3.55087896 C0.0452439868,4.10320038 0.0167466079,4.56017872 0.0100972195,4.92191953 C0.00330710324,5.2835196 0,5.78570675 0,6.42862169 C0,7.07146627 0.00330710324,7.57379414 0.0101324014,7.93532385 C0.0167817898,8.29713502 0.0452791688,8.75404299 0.0954134465,9.30632923 C0.145618088,9.85893211 0.217635538,10.3528163 0.311395433,10.7880522 C0.418559651,11.2769758 0.651217882,11.6887805 1.00947567,12.0234664 C1.36780383,12.358293 1.78474511,12.5524622 2.26012361,12.6060794 C3.74673687,12.7735455 5.99324507,12.8572434 9,12.8572434 C12.0068605,12.8572434 14.2531928,12.7735455 15.7399116,12.6060794 C16.2155012,12.5524973 16.6305778,12.358293 16.9855285,12.0234664 C17.3404792,11.6887453 17.5713783,11.2767295 17.6785425,10.7880522 C17.7789518,10.3528163 17.8543115,9.85893211 17.9046569,9.30632923 C17.9547208,8.75407817 17.9831478,8.29692392 17.9899028,7.93532385 C17.9966225,7.57379414 18,7.07146627 18,6.42862169 C18,5.78570675 17.9966577,5.2835196 17.9899028,4.92191953 Z M12.5558396,6.97105698 L7.41304781,10.1852447 C7.31925274,10.2521959 7.2052984,10.285654 7.07143108,10.285654 C6.97105698,10.285654 6.86727023,10.258775 6.7601412,10.205228 C6.53919856,10.0848354 6.42876242,9.89724525 6.42876242,9.64284458 L6.42876242,3.21443398 C6.42876242,2.96010367 6.53923374,2.77251352 6.7601412,2.65201534 C6.98787395,2.53130607 7.20543913,2.53806101 7.41304781,2.67210423 L12.5558748,5.88632712 C12.7566934,5.99996482 12.8571026,6.1808704 12.8571026,6.42865687 C12.8571026,6.67633779 12.7566582,6.85731374 12.5558396,6.97105698 Z" id="Shape"></path>
                </g>
            </g>
        </g>
    </g>
</svg>